PathFileType	4	(X/Y/Z)	C:\Users\WrightLab\Desktop\Jo\P5V12.trc
DataRate	CameraRate	NumFrames	NumMarkers	Units	OrigDataRate	OrigDataStartFrame	OrigNumFrames
100.00	100.00	      46	19	mm	100.00	1	      2078
Frame#	Time	Headset_Front			Headset_Back			Headset_Left			Headset_Right			Left_Shoulder			Right_Shoulder			Sternum			C7			Left Elbow			Right Elbow			Left Wrist			Right Wrist			Left ASIS			Right ASIS			S2			Left Knee			Right Knee			Left Ankle			Right Ankle			
		X1	Y1	Z1	X2	Y2	Z2	X3	Y3	Z3	X4	Y4	Z4	X5	Y5	Z5	X6	Y6	Z6	X7	Y7	Z7	X8	Y8	Z8	X9	Y9	Z9	X10	Y10	Z10	X11	Y11	Z11	X12	Y12	Z12	X13	Y13	Z13	X14	Y14	Z14	X15	Y15	Z15	X16	Y16	Z16	X17	Y17	Z17	X18	Y18	Z18	X19	Y19	Z19	

1	0.000													-84.52036	543.12292	1943.54028	-195.81006	1581.73682	2058.01270																									-272.49963	1033.09106	2143.17407	-407.58658	540.92627	1931.12402							-119.95460	148.30780	2062.22754	
2	0.010													-83.62879	543.08350	1943.20056	-195.08945	1581.79443	2056.00513																									-272.59537	1033.38965	2143.10254	-406.06693	540.66095	1930.94336							-119.72737	148.44298	2061.95142	
3	0.020													-82.07402	543.26477	1942.00354	-194.92128	1581.84229	2055.25854																									-272.41443	1033.31384	2142.73730	-404.00299	539.25012	1931.80872							-119.67883	148.61288	2061.76807	
4	0.030													-81.04900	542.87897	1939.81860	-194.98340	1581.87109	2055.07593																									-271.98764	1033.33569	2141.73804	-402.80005	539.27759	1930.94507							-119.65192	148.62563	2061.77466	
5	0.040													-80.05408	543.11517	1938.57153	-194.80330	1581.93665	2054.32422																									-271.88348	1033.74219	2141.42285	-401.52988	539.56177	1930.03491							-119.44032	148.62245	2061.63501	
6	0.050													-78.86349	543.29645	1937.45313	-194.62875	1581.95471	2053.46655																									-271.70670	1033.65332	2141.16943	-399.92398	539.46228	1929.99866							-119.45923	148.48357	2061.81177	
7	0.060													-77.51460	543.05200	1936.87756	-194.66759	1581.72961	2052.76587																									-271.31155	1033.64258	2140.26904	-398.60788	539.49194	1929.82727							-119.45750	148.48289	2061.81494	
8	0.070													-76.26334	542.57074	1936.08496	-194.57530	1581.89136	2051.75928																									-271.27161	1033.91589	2140.18799	-396.99939	539.12683	1931.88330							-119.42473	148.63165	2061.63550	
9	0.080													-75.05893	542.42383	1935.76257	-194.57059	1581.95605	2050.86157																									-270.89114	1034.03394	2139.28735	-395.61093	538.78418	1931.19507							-119.31747	148.80014	2061.36841	
10	0.090													-74.14301	541.19238	1934.11450	-194.24132	1581.88843	2049.24023																									-270.53284	1033.90503	2138.61914	-394.54907	539.09064	1930.30688							-119.32750	148.81911	2061.32324	
11	0.100													-73.43432	541.05768	1930.03760	-194.19202	1581.69519	2047.99927																									-270.30301	1033.79492	2138.35864	-393.56436	538.45850	1933.36438							-119.33324	148.87143	2061.22241	
12	0.110													-72.87771	541.07617	1929.01697	-194.36462	1581.64026	2047.13379																									-270.13873	1033.98462	2138.23657	-392.55566	538.83630	1931.70825							-119.15292	149.20959	2060.67627	
13	0.120													-72.56030	540.75555	1925.80859	-194.45265	1581.43262	2046.15930																									-269.87122	1033.93640	2138.08398	-391.75009	538.54047	1932.95227							-119.13110	149.28200	2060.56958	
14	0.130													-71.90472	541.06561	1924.25378	-194.42354	1581.40662	2045.01343																									-269.62589	1033.93579	2137.86890	-390.99356	538.34100	1934.20349							-119.07946	149.35541	2060.49365	
15	0.140													-71.78178	541.53455	1921.91821	-194.33034	1581.43848	2043.91882																									-269.39044	1034.02209	2137.71387	-390.46378	538.50244	1933.93787							-118.83319	149.43166	2060.28540	
16	0.150													-72.08212	541.58929	1917.91931	-194.27423	1581.30640	2043.44775																									-269.08597	1033.91565	2137.22437	-389.98596	538.69611	1933.69604							-118.56267	149.55174	2060.04150	
17	0.160													-71.46076	541.96606	1916.74329	-194.09743	1581.63525	2042.61487																									-269.14432	1034.25500	2137.33472	-388.98962	538.17664	1934.84607							-118.20060	149.62128	2059.78931	
18	0.170													-70.50561	542.24542	1915.47656	-193.25963	1581.87244	2040.52686																									-268.85712	1034.29395	2136.70190	-388.43167	538.52533	1935.83496							-117.99445	149.75291	2059.57813	
19	0.180													-69.94873	542.51105	1914.85522	-193.03061	1582.19116	2040.08325																									-268.74689	1034.50134	2136.28101	-387.85910	538.82098	1935.51648							-117.96366	149.73602	2059.64233	
20	0.190													-68.31219	542.28766	1916.53857	-192.55298	1582.37463	2039.31262																									-268.66324	1034.90796	2135.89136	-386.88464	539.05078	1937.27820							-117.91817	149.54251	2059.89844	
21	0.200													-67.17490	542.57062	1917.49744	-192.19756	1582.60339	2038.88074																									-268.67722	1035.65356	2135.80835	-385.79535	539.04779	1936.53809							-117.92210	149.36865	2060.14209	
22	0.210													-65.66814	542.51697	1917.27625	-191.76677	1582.65320	2038.22778																									-268.66211	1036.36646	2135.56177	-385.19049	539.68652	1936.78992							-118.09647	149.22076	2060.48633	
23	0.220													-64.13271	542.20190	1919.18323	-190.62514	1582.40063	2036.00037																									-268.65851	1036.52271	2135.50806	-384.25546	539.97748	1935.79065							-117.56209	148.65939	2060.44775	
24	0.230													-62.42350	541.95929	1922.16199	-190.11307	1582.76367	2035.20825																									-268.20663	1036.46924	2134.49658	-383.10745	540.01166	1936.00574							-117.37444	148.61537	2060.35571	
25	0.240													-60.51661	541.08392	1924.15417	-189.57362	1582.87317	2034.65491																									-268.16068	1036.66138	2134.54639	-382.09128	539.67114	1935.77710							-117.39452	148.31587	2060.69873	
26	0.250													-58.94212	541.45715	1926.24915	-188.94180	1583.23010	2034.25476																									-267.97836	1037.27271	2134.12134	-381.32230	539.94751	1935.17114							-117.28395	148.19287	2060.76978	
27	0.260													-57.08527	541.91119	1928.54541	-187.64830	1582.94971	2032.60815																									-267.52188	1037.72607	2133.01880	-380.50494	540.01550	1934.45911							-116.56791	148.93315	2062.19360	
28	0.270													-55.30739	541.41791	1931.61475	-187.11696	1583.53223	2032.45654																									-267.37860	1037.80896	2132.59668	-379.66348	540.18329	1933.55151							-116.62936	148.76189	2062.47681	
29	0.280													-54.36030	542.00262	1932.76892	-186.69395	1584.42297	2032.25305																									-267.06512	1037.87891	2132.02026	-378.38699	539.91656	1932.89355							-115.65979	148.13937	2063.04224	
30	0.290													-52.48912	542.41809	1936.27795	-185.32632	1584.18372	2030.50513																									-266.64560	1038.21484	2131.20068	-377.58221	540.33679	1931.43860							-115.66575	148.10394	2063.09985	
31	0.300													-51.17248	542.31226	1937.66089	-184.93866	1584.40198	2030.30554																									-266.18716	1038.49609	2130.31055	-376.32129	540.17401	1931.25964							-115.37594	148.75153	2064.11157	
32	0.310													-49.70561	542.47577	1940.72827	-184.51018	1584.70129	2030.16101																									-265.93076	1038.70593	2129.75708	-375.58447	540.63055	1929.89563							-115.80526	147.91690	2063.45190	
33	0.320													-49.44489	542.62708	1940.80139	-183.71547	1584.33105	2029.40784																									-265.60184	1038.99548	2128.55664	-374.23117	539.77124	1926.90552							-115.62942	147.69815	2063.57080	
34	0.330													-49.21865	542.17938	1941.70251	-183.13974	1584.38757	2028.87048																									-265.14746	1038.62183	2127.30103	-373.50238	540.08124	1925.44568							-115.43133	146.17348	2062.52661	
35	0.340													-48.01176	541.98743	1943.30420	-182.17632	1583.93762	2027.52783																									-265.27155	1038.85254	2126.67432	-372.64478	540.69092	1923.41016							-115.23969	146.14207	2062.45337	
36	0.350													-47.18567	541.23108	1943.07703	-181.74878	1584.03894	2027.04382																									-265.14078	1038.59705	2125.72607	-372.00452	540.90271	1922.62585							-114.66263	144.85316	2061.67578	
37	0.360													-46.74613	541.20630	1942.79919	-181.63487	1584.20459	2026.98901																									-265.05396	1038.42883	2124.58838	-371.52145	540.51904	1921.05591							-114.66557	144.82260	2061.72778	
38	0.370													-45.60592	540.90070	1944.67285	-181.25296	1584.11145	2026.30847																									-265.35190	1038.13257	2123.87402	-371.04858	540.80548	1918.27112							-114.71111	144.65497	2061.95508	
39	0.380													-44.89626	540.56720	1945.05103	-180.16747	1583.42273	2024.38635																									-265.66858	1037.64844	2122.50513	-369.79724	540.81085	1917.63538							-114.13425	143.87962	2062.13013	
40	0.390													-43.91771	540.02954	1946.60291	-179.87888	1583.02832	2024.01587																									-265.90613	1037.44678	2121.59814	-369.69736	540.68970	1914.79468							-114.12892	143.84712	2062.19458	
41	0.400													-42.29046	539.69855	1947.83728	-179.64621	1583.09497	2023.57715																									-266.16907	1037.39453	2120.82275	-368.27664	540.27203	1913.65674							-114.18193	143.66591	2062.45239	
42	0.410													-41.14449	539.49274	1949.19421	-179.34854	1582.78210	2023.15344																									-266.52133	1037.58704	2120.13477	-367.27359	539.20496	1913.36365							-114.14478	143.50844	2062.59375	
43	0.420													-39.82888	539.09210	1951.58643	-179.07614	1582.62695	2022.64099																									-266.76715	1037.55957	2119.56982	-366.27744	539.03925	1911.00500							-114.28173	143.34340	2062.86499	
44	0.430													-38.35273	539.00879	1953.07080	-178.21422	1582.42444	2020.72534																									-267.48294	1037.56274	2118.64868	-365.12628	539.16559	1909.50488							-114.29781	143.32140	2062.88696	
45	0.440													-36.67776	538.59570	1954.25757	-178.12270	1582.22144	2020.54980																									-268.56885	1037.15759	2117.01807	-363.46121	539.64117	1907.33447							-114.31013	143.30994	2062.89404	
46	0.450													-35.17999	538.04572	1957.47388	-177.80511	1582.04956	2019.68140																									-269.37869	1037.09473	2115.74780	-361.79639	538.87866	1904.75366							-114.32869	143.30049	2062.89063	
